<svg width="208" height="96" viewBox="0 0 208 96" fill="none" xmlns="http://www.w3.org/2000/svg">
<path d="M40.8281 85.4922C40.8281 85.8978 40.778 86.2601 40.6777 86.5791C40.5775 86.8981 40.4408 87.1807 40.2676 87.4268C40.099 87.6683 39.903 87.8757 39.6797 88.0488C39.4564 88.222 39.2217 88.3656 38.9756 88.4795C38.734 88.5889 38.488 88.6686 38.2373 88.7188C37.9912 88.7689 37.7588 88.7939 37.54 88.7939L41.252 92H38.5039L34.7988 88.7939H33.5205V87.0166H37.54C37.7633 86.9984 37.9661 86.9528 38.1484 86.8799C38.3353 86.8024 38.4948 86.6999 38.627 86.5723C38.7637 86.4447 38.8685 86.292 38.9414 86.1143C39.0143 85.932 39.0508 85.7246 39.0508 85.4922V84.3711C39.0508 84.2708 39.0371 84.1956 39.0098 84.1455C38.987 84.0908 38.9551 84.0521 38.9141 84.0293C38.8776 84.002 38.8366 83.986 38.791 83.9814C38.75 83.9769 38.7113 83.9746 38.6748 83.9746H32.8096V92H31.0322V83.0928C31.0322 82.9697 31.055 82.8535 31.1006 82.7441C31.1462 82.6348 31.2077 82.5391 31.2852 82.457C31.3672 82.375 31.4629 82.3112 31.5723 82.2656C31.6816 82.2201 31.8001 82.1973 31.9277 82.1973H38.6748C39.0713 82.1973 39.4062 82.2702 39.6797 82.416C39.9531 82.5573 40.1742 82.7373 40.3428 82.9561C40.516 83.1702 40.639 83.4027 40.7119 83.6533C40.7894 83.904 40.8281 84.1387 40.8281 84.3574V85.4922ZM50.2822 87.0576C50.2822 87.3037 50.2389 87.5703 50.1523 87.8574C50.0658 88.14 49.9245 88.4043 49.7285 88.6504C49.5371 88.8919 49.2842 89.0947 48.9697 89.2588C48.6598 89.4229 48.2816 89.5049 47.835 89.5049H44.6289V87.8164H47.835C48.0765 87.8164 48.2633 87.7435 48.3955 87.5977C48.5277 87.4473 48.5938 87.2627 48.5938 87.0439C48.5938 86.8115 48.5186 86.6292 48.3682 86.4971C48.2223 86.3649 48.0446 86.2988 47.835 86.2988H44.6289C44.3874 86.2988 44.2005 86.374 44.0684 86.5244C43.9362 86.6702 43.8701 86.8525 43.8701 87.0713V89.5527C43.8701 89.7897 43.943 89.9743 44.0889 90.1064C44.2393 90.2386 44.4238 90.3047 44.6426 90.3047H47.835V92H44.6289C44.3828 92 44.1162 91.9567 43.8291 91.8701C43.5465 91.7835 43.2822 91.6445 43.0361 91.4531C42.7946 91.2572 42.5918 91.0042 42.4277 90.6943C42.2637 90.3799 42.1816 89.9993 42.1816 89.5527V87.0576C42.1816 86.8115 42.2249 86.5472 42.3115 86.2646C42.3981 85.9775 42.5371 85.7132 42.7285 85.4717C42.9245 85.2256 43.1774 85.0205 43.4873 84.8564C43.8018 84.6924 44.1823 84.6104 44.6289 84.6104H47.835C48.0811 84.6104 48.3454 84.6536 48.6279 84.7402C48.915 84.8268 49.1794 84.9681 49.4209 85.1641C49.667 85.3555 49.8721 85.6084 50.0361 85.9229C50.2002 86.2327 50.2822 86.611 50.2822 87.0576ZM60.2969 84.6104C60.0964 85.2347 59.8617 85.8499 59.5928 86.4561C59.3239 87.0622 59.014 87.641 58.6631 88.1924C58.3167 88.7393 57.9271 89.2474 57.4941 89.7168C57.0658 90.1816 56.5895 90.585 56.0654 90.9268C55.5459 91.264 54.9785 91.5306 54.3633 91.7266C53.7526 91.918 53.0895 92.0137 52.374 92.0137C52.251 92.0137 52.1348 91.9909 52.0254 91.9453C51.916 91.8997 51.8203 91.8382 51.7383 91.7607C51.6562 91.6787 51.5924 91.5853 51.5469 91.4805C51.5013 91.3711 51.4785 91.2549 51.4785 91.1318V84.6104H53.2559V90.168C53.6888 90.168 54.1035 90.0745 54.5 89.8877C54.901 89.7008 55.2793 89.4548 55.6348 89.1494C55.9902 88.8395 56.3184 88.4886 56.6191 88.0967C56.9245 87.7048 57.1956 87.3037 57.4326 86.8936C57.6696 86.4788 57.8701 86.0732 58.0342 85.6768C58.2028 85.2803 58.3281 84.9248 58.4102 84.6104H60.2969ZM68.8896 87.0576C68.8896 87.3037 68.8464 87.5703 68.7598 87.8574C68.6732 88.14 68.5319 88.4043 68.3359 88.6504C68.1445 88.8919 67.8916 89.0947 67.5771 89.2588C67.2673 89.4229 66.889 89.5049 66.4424 89.5049H63.2363V87.8164H66.4424C66.6839 87.8164 66.8708 87.7435 67.0029 87.5977C67.1351 87.4473 67.2012 87.2627 67.2012 87.0439C67.2012 86.8115 67.126 86.6292 66.9756 86.4971C66.8298 86.3649 66.652 86.2988 66.4424 86.2988H63.2363C62.9948 86.2988 62.8079 86.374 62.6758 86.5244C62.5436 86.6702 62.4775 86.8525 62.4775 87.0713V89.5527C62.4775 89.7897 62.5505 89.9743 62.6963 90.1064C62.8467 90.2386 63.0312 90.3047 63.25 90.3047H66.4424V92H63.2363C62.9902 92 62.7236 91.9567 62.4365 91.8701C62.154 91.7835 61.8896 91.6445 61.6436 91.4531C61.402 91.2572 61.1992 91.0042 61.0352 90.6943C60.8711 90.3799 60.7891 89.9993 60.7891 89.5527V87.0576C60.7891 86.8115 60.8324 86.5472 60.9189 86.2646C61.0055 85.9775 61.1445 85.7132 61.3359 85.4717C61.5319 85.2256 61.7848 85.0205 62.0947 84.8564C62.4092 84.6924 62.7897 84.6104 63.2363 84.6104H66.4424C66.6885 84.6104 66.9528 84.6536 67.2354 84.7402C67.5225 84.8268 67.7868 84.9681 68.0283 85.1641C68.2744 85.3555 68.4795 85.6084 68.6436 85.9229C68.8076 86.2327 68.8896 86.611 68.8896 87.0576ZM78.2754 92H76.498V87.8984C76.498 87.666 76.457 87.4587 76.375 87.2764C76.2975 87.0895 76.1904 86.93 76.0537 86.7979C75.917 86.6657 75.7552 86.5654 75.5684 86.4971C75.3861 86.4242 75.1878 86.3877 74.9736 86.3877H71.8633V92H70.0859V85.4922C70.0859 85.3691 70.1087 85.2552 70.1543 85.1504C70.1999 85.041 70.2637 84.9476 70.3457 84.8701C70.4277 84.7881 70.5234 84.7243 70.6328 84.6787C70.7422 84.6331 70.8584 84.6104 70.9814 84.6104H74.9873C75.2106 84.6104 75.4453 84.6354 75.6914 84.6855C75.9421 84.7357 76.1882 84.8177 76.4297 84.9316C76.6758 85.041 76.9082 85.1823 77.127 85.3555C77.3503 85.5241 77.5462 85.7314 77.7148 85.9775C77.888 86.2191 78.0247 86.4993 78.125 86.8184C78.2253 87.1374 78.2754 87.4974 78.2754 87.8984V92ZM87.9414 89.5049C87.9414 89.8102 87.9027 90.0859 87.8252 90.332C87.7477 90.5736 87.6452 90.7878 87.5176 90.9746C87.39 91.1569 87.2419 91.3141 87.0732 91.4463C86.9046 91.5739 86.7269 91.6787 86.54 91.7607C86.3577 91.8428 86.1709 91.9043 85.9795 91.9453C85.7926 91.9818 85.6149 92 85.4463 92H82.2402C81.9349 92 81.6615 91.9613 81.4199 91.8838C81.1784 91.8063 80.9642 91.7038 80.7773 91.5762C80.5951 91.444 80.4378 91.2936 80.3057 91.125C80.1781 90.9564 80.0732 90.7809 79.9912 90.5986C79.9092 90.4118 79.8477 90.2249 79.8066 90.0381C79.7702 89.8467 79.752 89.6689 79.752 89.5049V87.0986C79.752 86.6429 79.834 86.2578 79.998 85.9434C80.1667 85.6243 80.374 85.3669 80.6201 85.1709C80.8708 84.9704 81.1419 84.8268 81.4336 84.7402C81.7253 84.6536 81.9941 84.6104 82.2402 84.6104H85.4463V86.3877H82.2539C82.0169 86.3877 81.8369 86.4492 81.7139 86.5723C81.5908 86.6908 81.5293 86.8662 81.5293 87.0986V89.4912C81.5293 89.7327 81.5885 89.915 81.707 90.0381C81.8301 90.1611 82.0078 90.2227 82.2402 90.2227H85.4463C85.6878 90.2227 85.8678 90.1611 85.9863 90.0381C86.1048 89.915 86.1641 89.7373 86.1641 89.5049V81.4863H87.9414V89.5049ZM97.2656 89.5527C97.2656 89.7988 97.2223 90.0654 97.1357 90.3525C97.0492 90.6351 96.9079 90.8994 96.7119 91.1455C96.5205 91.387 96.2676 91.5898 95.9531 91.7539C95.6432 91.918 95.265 92 94.8184 92H91.6123C91.3662 92 91.0996 91.9567 90.8125 91.8701C90.5299 91.7835 90.2656 91.6445 90.0195 91.4531C89.778 91.2572 89.5752 91.0042 89.4111 90.6943C89.2471 90.3799 89.165 89.9993 89.165 89.5527C89.165 89.3066 89.2083 89.04 89.2949 88.7529C89.3815 88.4658 89.5205 88.2015 89.7119 87.96C89.9079 87.7139 90.1608 87.5088 90.4707 87.3447C90.7852 87.1807 91.1657 87.0986 91.6123 87.0986H94.8184V88.7939H91.6123C91.3708 88.7939 91.1839 88.8691 91.0518 89.0195C90.9196 89.1654 90.8535 89.3477 90.8535 89.5664C90.8535 89.7988 90.9287 89.9811 91.0791 90.1133C91.234 90.2409 91.4163 90.3047 91.626 90.3047H94.8184C95.0599 90.3047 95.2467 90.2318 95.3789 90.0859C95.5111 89.9401 95.5771 89.7578 95.5771 89.5391V87.0576C95.5771 86.8252 95.5042 86.6406 95.3584 86.5039C95.2171 86.3672 95.0371 86.2988 94.8184 86.2988H90.915V84.6104H94.8184C95.0645 84.6104 95.3288 84.6536 95.6113 84.7402C95.8984 84.8268 96.1628 84.9681 96.4043 85.1641C96.6504 85.3555 96.8555 85.6084 97.0195 85.9229C97.1836 86.2327 97.2656 86.611 97.2656 87.0576V89.5527ZM111.443 89.5049C111.443 89.8102 111.405 90.0859 111.327 90.332C111.25 90.5736 111.147 90.7878 111.02 90.9746C110.892 91.1569 110.744 91.3141 110.575 91.4463C110.407 91.5739 110.229 91.6787 110.042 91.7607C109.86 91.8428 109.673 91.9043 109.481 91.9453C109.295 91.9818 109.117 92 108.948 92H105.742C105.437 92 105.163 91.9613 104.922 91.8838C104.68 91.8063 104.466 91.7038 104.279 91.5762C104.097 91.444 103.94 91.2936 103.808 91.125C103.68 90.9564 103.575 90.7809 103.493 90.5986C103.411 90.4118 103.35 90.2249 103.309 90.0381C103.272 89.8467 103.254 89.6689 103.254 89.5049V87.0986C103.254 86.6429 103.336 86.2578 103.5 85.9434C103.669 85.6243 103.876 85.3669 104.122 85.1709C104.373 84.9704 104.644 84.8268 104.936 84.7402C105.227 84.6536 105.496 84.6104 105.742 84.6104H108.948V86.3877H105.756C105.519 86.3877 105.339 86.4492 105.216 86.5723C105.093 86.6908 105.031 86.8662 105.031 87.0986V89.4912C105.031 89.7327 105.09 89.915 105.209 90.0381C105.332 90.1611 105.51 90.2227 105.742 90.2227H108.948C109.19 90.2227 109.37 90.1611 109.488 90.0381C109.607 89.915 109.666 89.7373 109.666 89.5049V81.4863H111.443V89.5049ZM121.089 87.0576C121.089 87.3037 121.046 87.5703 120.959 87.8574C120.872 88.14 120.731 88.4043 120.535 88.6504C120.344 88.8919 120.091 89.0947 119.776 89.2588C119.466 89.4229 119.088 89.5049 118.642 89.5049H115.436V87.8164H118.642C118.883 87.8164 119.07 87.7435 119.202 87.5977C119.334 87.4473 119.4 87.2627 119.4 87.0439C119.4 86.8115 119.325 86.6292 119.175 86.4971C119.029 86.3649 118.851 86.2988 118.642 86.2988H115.436C115.194 86.2988 115.007 86.374 114.875 86.5244C114.743 86.6702 114.677 86.8525 114.677 87.0713V89.5527C114.677 89.7897 114.75 89.9743 114.896 90.1064C115.046 90.2386 115.23 90.3047 115.449 90.3047H118.642V92H115.436C115.189 92 114.923 91.9567 114.636 91.8701C114.353 91.7835 114.089 91.6445 113.843 91.4531C113.601 91.2572 113.398 91.0042 113.234 90.6943C113.07 90.3799 112.988 89.9993 112.988 89.5527V87.0576C112.988 86.8115 113.032 86.5472 113.118 86.2646C113.205 85.9775 113.344 85.7132 113.535 85.4717C113.731 85.2256 113.984 85.0205 114.294 84.8564C114.608 84.6924 114.989 84.6104 115.436 84.6104H118.642C118.888 84.6104 119.152 84.6536 119.435 84.7402C119.722 84.8268 119.986 84.9681 120.228 85.1641C120.474 85.3555 120.679 85.6084 120.843 85.9229C121.007 86.2327 121.089 86.611 121.089 87.0576ZM135.813 92H129.401C129.237 92 129.06 91.9818 128.868 91.9453C128.681 91.9043 128.494 91.8428 128.308 91.7607C128.125 91.6787 127.95 91.5739 127.781 91.4463C127.613 91.3141 127.462 91.1569 127.33 90.9746C127.202 90.7878 127.1 90.5736 127.022 90.332C126.945 90.0859 126.906 89.8102 126.906 89.5049V84.6924C126.906 84.5283 126.924 84.3529 126.961 84.166C127.002 83.9746 127.063 83.7878 127.146 83.6055C127.228 83.4186 127.335 83.2409 127.467 83.0723C127.599 82.9036 127.756 82.7555 127.938 82.6279C128.125 82.4958 128.34 82.391 128.581 82.3135C128.823 82.236 129.096 82.1973 129.401 82.1973H135.813V83.9746H129.401C129.169 83.9746 128.991 84.0361 128.868 84.1592C128.745 84.2822 128.684 84.4645 128.684 84.7061V89.5049C128.684 89.7327 128.745 89.9105 128.868 90.0381C128.996 90.1611 129.174 90.2227 129.401 90.2227H135.813V92ZM144.885 89.5527C144.885 89.7988 144.841 90.0654 144.755 90.3525C144.668 90.6351 144.527 90.8994 144.331 91.1455C144.14 91.387 143.887 91.5898 143.572 91.7539C143.262 91.918 142.884 92 142.438 92H139.231C138.985 92 138.719 91.9567 138.432 91.8701C138.149 91.7835 137.885 91.6445 137.639 91.4531C137.397 91.2572 137.194 91.0042 137.03 90.6943C136.866 90.3799 136.784 89.9993 136.784 89.5527C136.784 89.3066 136.827 89.04 136.914 88.7529C137.001 88.4658 137.14 88.2015 137.331 87.96C137.527 87.7139 137.78 87.5088 138.09 87.3447C138.404 87.1807 138.785 87.0986 139.231 87.0986H142.438V88.7939H139.231C138.99 88.7939 138.803 88.8691 138.671 89.0195C138.539 89.1654 138.473 89.3477 138.473 89.5664C138.473 89.7988 138.548 89.9811 138.698 90.1133C138.853 90.2409 139.035 90.3047 139.245 90.3047H142.438C142.679 90.3047 142.866 90.2318 142.998 90.0859C143.13 89.9401 143.196 89.7578 143.196 89.5391V87.0576C143.196 86.8252 143.123 86.6406 142.978 86.5039C142.836 86.3672 142.656 86.2988 142.438 86.2988H138.534V84.6104H142.438C142.684 84.6104 142.948 84.6536 143.23 84.7402C143.518 84.8268 143.782 84.9681 144.023 85.1641C144.27 85.3555 144.475 85.6084 144.639 85.9229C144.803 86.2327 144.885 86.611 144.885 87.0576V89.5527ZM152.869 86.3877H148.87C148.629 86.3877 148.446 86.4492 148.323 86.5723C148.2 86.6908 148.139 86.8662 148.139 87.0986V92H146.361V87.0986C146.361 86.7933 146.4 86.5199 146.478 86.2783C146.555 86.0368 146.658 85.8249 146.785 85.6426C146.917 85.4557 147.068 85.2985 147.236 85.1709C147.405 85.0387 147.58 84.9316 147.763 84.8496C147.95 84.7676 148.136 84.7083 148.323 84.6719C148.515 84.6309 148.692 84.6104 148.856 84.6104H152.869V86.3877ZM160.471 86.3877H156.472C156.23 86.3877 156.048 86.4492 155.925 86.5723C155.802 86.6908 155.74 86.8662 155.74 87.0986V92H153.963V87.0986C153.963 86.7933 154.002 86.5199 154.079 86.2783C154.157 86.0368 154.259 85.8249 154.387 85.6426C154.519 85.4557 154.669 85.2985 154.838 85.1709C155.007 85.0387 155.182 84.9316 155.364 84.8496C155.551 84.7676 155.738 84.7083 155.925 84.6719C156.116 84.6309 156.294 84.6104 156.458 84.6104H160.471V86.3877ZM169.658 89.5049C169.658 89.8102 169.619 90.0859 169.542 90.332C169.465 90.5736 169.362 90.7878 169.234 90.9746C169.107 91.1569 168.959 91.3141 168.79 91.4463C168.621 91.5739 168.444 91.6787 168.257 91.7607C168.075 91.8428 167.888 91.9043 167.696 91.9453C167.509 91.9818 167.332 92 167.163 92H163.957C163.711 92 163.442 91.9567 163.15 91.8701C162.859 91.7835 162.588 91.6423 162.337 91.4463C162.091 91.2458 161.883 90.9883 161.715 90.6738C161.551 90.3548 161.469 89.9652 161.469 89.5049V87.0986C161.469 86.6429 161.551 86.2578 161.715 85.9434C161.883 85.6243 162.091 85.3669 162.337 85.1709C162.588 84.9704 162.859 84.8268 163.15 84.7402C163.442 84.6536 163.711 84.6104 163.957 84.6104H167.163C167.619 84.6104 168.006 84.6924 168.325 84.8564C168.644 85.0205 168.902 85.2279 169.098 85.4785C169.294 85.7246 169.435 85.9935 169.521 86.2852C169.613 86.5768 169.658 86.848 169.658 87.0986V89.5049ZM167.881 87.1123C167.881 86.8662 167.819 86.6839 167.696 86.5654C167.573 86.4469 167.396 86.3877 167.163 86.3877H163.971C163.734 86.3877 163.554 86.4492 163.431 86.5723C163.308 86.6908 163.246 86.8662 163.246 87.0986V89.5049C163.246 89.7373 163.308 89.915 163.431 90.0381C163.554 90.1611 163.734 90.2227 163.971 90.2227H167.163C167.405 90.2227 167.585 90.1611 167.703 90.0381C167.822 89.915 167.881 89.7373 167.881 89.5049V87.1123ZM178.319 89.5049C178.319 89.8102 178.281 90.0859 178.203 90.332C178.126 90.5736 178.023 90.7878 177.896 90.9746C177.768 91.1569 177.62 91.3141 177.451 91.4463C177.283 91.5739 177.105 91.6787 176.918 91.7607C176.736 91.8428 176.549 91.9043 176.357 91.9453C176.171 91.9818 175.993 92 175.824 92H171.012V90.2227H175.811C176.052 90.2227 176.234 90.1611 176.357 90.0381C176.48 89.915 176.542 89.7373 176.542 89.5049C176.519 89.0309 176.28 88.7939 175.824 88.7939H173.069C172.677 88.7939 172.345 88.7256 172.071 88.5889C171.798 88.4521 171.575 88.2812 171.401 88.0762C171.233 87.8711 171.11 87.6501 171.032 87.4131C170.959 87.1761 170.923 86.9551 170.923 86.75C170.923 86.3535 170.993 86.0208 171.135 85.752C171.276 85.4785 171.454 85.2575 171.668 85.0889C171.882 84.9202 172.115 84.7995 172.365 84.7266C172.616 84.6491 172.851 84.6104 173.069 84.6104H177.438V86.3877H173.083C172.992 86.3877 172.919 86.3991 172.864 86.4219C172.814 86.4401 172.775 86.4674 172.748 86.5039C172.725 86.5358 172.712 86.5723 172.707 86.6133C172.702 86.6497 172.7 86.6862 172.7 86.7227C172.705 86.7956 172.718 86.8525 172.741 86.8936C172.764 86.9346 172.791 86.9642 172.823 86.9824C172.86 87.0007 172.898 87.012 172.939 87.0166C172.985 87.0166 173.028 87.0166 173.069 87.0166H175.824C176.28 87.0166 176.667 87.0986 176.986 87.2627C177.305 87.4268 177.563 87.6341 177.759 87.8848C177.955 88.1309 178.096 88.3997 178.183 88.6914C178.274 88.9831 178.319 89.2542 178.319 89.5049Z" fill="#8785FF"/>
<path d="M206.438 50.9587C206.438 52.0168 206.29 52.9619 205.993 53.7941C205.696 54.6263 205.292 55.3634 204.779 56.0054C204.28 56.6355 203.7 57.1764 203.039 57.6282C202.378 58.0799 201.683 58.4544 200.955 58.7516C200.24 59.037 199.511 59.245 198.77 59.3758C198.041 59.5066 197.353 59.572 196.706 59.572L207.693 67.9355H199.559L188.592 59.572H184.808V54.9354H196.706C197.367 54.8879 197.967 54.769 198.507 54.5788C199.06 54.3767 199.532 54.1092 199.923 53.7763C200.328 53.4434 200.638 53.0451 200.854 52.5815C201.069 52.1059 201.177 51.565 201.177 50.9587V48.0341C201.177 47.7726 201.137 47.5764 201.056 47.4456C200.989 47.303 200.894 47.2019 200.773 47.1425C200.665 47.0711 200.543 47.0295 200.409 47.0176C200.287 47.0058 200.172 46.9998 200.065 46.9998H182.704V67.9355H177.443V44.6994C177.443 44.3784 177.511 44.0752 177.646 43.7899C177.781 43.5046 177.963 43.2549 178.192 43.0409C178.435 42.8269 178.718 42.6605 179.042 42.5416C179.366 42.4227 179.716 42.3633 180.094 42.3633H200.065C201.238 42.3633 202.23 42.5535 203.039 42.9339C203.848 43.3025 204.502 43.7721 205.002 44.3427C205.514 44.9015 205.878 45.5078 206.094 46.1617C206.323 46.8155 206.438 47.4278 206.438 47.9985V50.9587Z" fill="white"/>
<path d="M169.24 67.9355H163.979V61.6584H145.485V67.9355H140.225V55.1494C140.225 53.2829 140.589 51.565 141.317 49.9957C142.046 48.4264 143.057 47.0771 144.352 45.9477C145.647 44.8183 147.178 43.9385 148.945 43.3084C150.712 42.6783 152.641 42.3633 154.732 42.3633H166.589C166.953 42.3633 167.297 42.4227 167.621 42.5416C167.945 42.6605 168.228 42.8269 168.471 43.0409C168.714 43.2549 168.902 43.5046 169.037 43.7899C169.172 44.0752 169.24 44.3784 169.24 44.6994V67.9355ZM145.485 57.0219H163.979V46.9998H154.732C154.57 46.9998 154.226 47.0236 153.7 47.0711C153.188 47.1068 152.587 47.2079 151.899 47.3743C151.225 47.5407 150.51 47.7963 149.755 48.1411C148.999 48.4859 148.305 48.9614 147.671 49.5677C147.037 50.1741 146.511 50.9349 146.092 51.8503C145.688 52.7539 145.485 53.8536 145.485 55.1494V57.0219Z" fill="white"/>
<path d="M133.722 67.9355H114.743C114.257 67.9355 113.731 67.888 113.164 67.7929C112.611 67.6859 112.058 67.5254 111.505 67.3114C110.966 67.0974 110.446 66.824 109.947 66.4911C109.448 66.1463 109.003 65.7362 108.612 65.2606C108.234 64.7732 107.931 64.2144 107.701 63.5843C107.472 62.9424 107.357 62.2231 107.357 61.4266V48.8723C107.357 48.4443 107.411 47.9866 107.519 47.4991C107.641 46.9998 107.823 46.5124 108.066 46.0368C108.308 45.5494 108.625 45.0858 109.017 44.6459C109.408 44.206 109.873 43.8196 110.413 43.4867C110.966 43.142 111.6 42.8685 112.315 42.6664C113.03 42.4643 113.839 42.3633 114.743 42.3633H133.722V46.9998H114.743C114.055 46.9998 113.529 47.1603 113.164 47.4813C112.8 47.8023 112.618 48.2778 112.618 48.9079V61.4266C112.618 62.021 112.8 62.4846 113.164 62.8175C113.542 63.1385 114.068 63.299 114.743 63.299H133.722V67.9355Z" fill="white"/>
<path d="M70.9611 51.4937L79.8234 42.3633H87.0064L74.5222 55.1851L86.9254 67.9355H79.783L70.9611 58.8765L62.1797 67.9355H55.017L67.4 55.1851L54.9766 42.3633H62.0988L70.9611 51.4937Z" fill="white"/>
<path d="M49.4853 67.9355H44.2246V42.3633H49.4853V67.9355Z" fill="white"/>
<path d="M35.9818 67.9375H30.6806V52.7083L21.3529 67.1707C21.1236 67.5392 20.7999 67.8186 20.3817 68.0088C19.977 68.1991 19.5386 68.2942 19.0665 68.2942C18.6079 68.2942 18.1762 68.1991 17.7716 68.0088C17.3804 67.8186 17.0701 67.5392 16.8408 67.1707L7.47265 52.7083V67.9375H2.21191V44.3447C2.21191 43.8097 2.38727 43.3342 2.73799 42.9181C3.10219 42.502 3.57431 42.2226 4.15434 42.0799C4.43761 42.0205 4.72088 42.0026 5.00415 42.0264C5.28742 42.0383 5.5572 42.0918 5.8135 42.1869C6.08328 42.2701 6.32608 42.395 6.54191 42.5614C6.75773 42.716 6.93984 42.9062 7.08821 43.1321L19.0665 61.482L31.0448 43.1321C31.3551 42.6803 31.78 42.3593 32.3195 42.1691C32.8726 41.9789 33.4459 41.9491 34.0394 42.0799C34.6059 42.2226 35.0713 42.502 35.4355 42.9181C35.7997 43.3342 35.9818 43.8097 35.9818 44.3447V67.9375Z" fill="white"/>
<path d="M134 7C132.078 17.7037 117.273 22.5273 98.2109 24.6711C61.2656 28.8209 8.32031 22.8642 2 30C8.32031 21.532 30.7187 19.8399 55.4062 19.1125H55.5156C88.7969 18.1248 126.211 18.8599 133.992 7H134Z" fill="url(#paint0_linear_1648_953)"/>
<path d="M134 7C132.078 17.7037 117.273 22.5273 98.2109 24.6711C61.2656 28.8209 8.32031 22.8642 2 30C8.32031 21.532 30.7187 19.8399 55.4062 19.1125H55.5156C88.7969 18.1248 126.211 18.8599 133.992 7H134Z" fill="url(#paint1_linear_1648_953)"/>
<path d="M208 17.9462C175.667 26.3709 147.604 0.903514 99.0418 5.05948C86.8385 6.10652 48 20 48 20C57.5429 14.0077 91.0135 2.63517 98.8691 1.66866C105.932 0.790756 133.258 -3.44575 165.787 6.30788H165.803C168.62 7.16162 171.477 8.10396 174.365 9.17517C195.247 16.8991 208 17.9462 208 17.9462Z" fill="url(#paint2_linear_1648_953)"/>
<path d="M208 18C195.344 31.4759 164.786 26.0885 139.011 25.1413C130.981 24.8378 123.414 24.971 117 26.2365C140.226 16.0685 165.382 19.2062 183.903 20.5605C194.826 21.3523 203.444 21.5373 207.992 18H208Z" fill="url(#paint3_linear_1648_953)"/>
<path d="M23 30.4307C20.9319 36.1425 13.6778 36.1503 7.79462 36.0402C4.18324 35.9772 1.07323 35.8592 0 37C1.41792 31.5164 10.0272 30.1082 16.4118 30.0059C19.467 29.9587 22.0051 30.2026 23 30.4386V30.4307Z" fill="#58FCAD"/>
<path d="M134 7C132.09 17.8732 117.377 22.7732 98.4318 24.9509C83.5399 25.6431 77.8798 18.7754 56 19.3043C89.0758 18.2932 126.259 19.0476 133.992 7H134Z" fill="url(#paint4_linear_1648_953)"/>
<path d="M134 7C132.09 17.8732 117.377 22.7732 98.4318 24.9509C83.5399 25.6431 77.8798 18.7754 56 19.3043C89.0758 18.2932 126.259 19.0476 133.992 7H134Z" fill="url(#paint5_linear_1648_953)"/>
<path d="M166 6.30788C145.427 3.00566 127.518 0.0900414 99.1307 5.05948C86.9062 6.10652 48 20 48 20C57.5595 14.0077 91.0885 2.63517 98.9578 1.66866C106.033 0.790756 133.407 -3.44575 165.992 6.30788H166Z" fill="url(#paint6_linear_1648_953)"/>
<path d="M166 6.30788C145.427 3.00566 127.518 0.0900414 99.1307 5.05948C86.9062 6.10652 48 20 48 20C57.5595 14.0077 91.0885 2.63517 98.9578 1.66866C106.033 0.790756 133.407 -3.44575 165.992 6.30788H166Z" fill="url(#paint7_linear_1648_953)"/>
<path d="M184 20.4924C168.569 20.2339 164.03 25.3466 139.043 24.9301C131.002 24.6429 123.424 24.7721 117 26C140.26 16.1338 165.452 19.1784 184 20.4924Z" fill="url(#paint8_linear_1648_953)"/>
<path d="M184 20.4924C168.569 20.2339 164.03 25.3466 139.043 24.9301C131.002 24.6429 123.424 24.7721 117 26C140.26 16.1338 165.452 19.1784 184 20.4924Z" fill="url(#paint9_linear_1648_953)"/>
<path d="M189 29.1699C202.036 27.5732 207.592 22 207.592 22C209.194 28.6273 206.69 33.937 189 29.1699Z" fill="#58FCAD"/>
<rect y="74" width="208" height="2" fill="white"/>
<defs>
<linearGradient id="paint0_linear_1648_953" x1="2.24186" y1="17.335" x2="133.773" y2="19.7714" gradientUnits="userSpaceOnUse">
<stop stop-color="#5CB8FF"/>
<stop offset="1" stop-color="#2F2569"/>
</linearGradient>
<linearGradient id="paint1_linear_1648_953" x1="134" y1="16.0253" x2="4.70727" y2="21.1497" gradientUnits="userSpaceOnUse">
<stop stop-color="#C5C3FF"/>
<stop offset="0.492931" stop-color="#A3A0F8"/>
<stop offset="1" stop-color="#4441C8"/>
</linearGradient>
<linearGradient id="paint2_linear_1648_953" x1="70.4994" y1="-2.82525" x2="239.21" y2="15.4545" gradientUnits="userSpaceOnUse">
<stop stop-color="#C5C3FF"/>
<stop offset="0.492931" stop-color="#A3A0F8"/>
<stop offset="1" stop-color="#4441C8"/>
</linearGradient>
<linearGradient id="paint3_linear_1648_953" x1="86.2928" y1="41.0969" x2="214.766" y2="11.0756" gradientUnits="userSpaceOnUse">
<stop offset="0.492931" stop-color="#A3A0F8"/>
<stop offset="1" stop-color="#4441C8"/>
</linearGradient>
<linearGradient id="paint4_linear_1648_953" x1="56.086" y1="14.9313" x2="1.65172" y2="13.9449" gradientUnits="userSpaceOnUse">
<stop stop-color="#5CB8FF"/>
<stop offset="1" stop-color="#2F2569"/>
</linearGradient>
<linearGradient id="paint5_linear_1648_953" x1="134" y1="14.0633" x2="57.5482" y2="16.3512" gradientUnits="userSpaceOnUse">
<stop stop-color="#C5C3FF"/>
<stop offset="0.492931" stop-color="#A3A0F8"/>
<stop offset="1" stop-color="#4441C8"/>
</linearGradient>
<linearGradient id="paint6_linear_1648_953" x1="48.1979" y1="9.30207" x2="165.921" y2="11.388" gradientUnits="userSpaceOnUse">
<stop stop-color="#5CB8FF"/>
<stop offset="1" stop-color="#2F2569"/>
</linearGradient>
<linearGradient id="paint7_linear_1648_953" x1="166" y1="7.84811" x2="50.4304" y2="12.557" gradientUnits="userSpaceOnUse">
<stop stop-color="#C5C3FF"/>
<stop offset="0.492931" stop-color="#A3A0F8"/>
<stop offset="1" stop-color="#4441C8"/>
</linearGradient>
<linearGradient id="paint8_linear_1648_953" x1="144.065" y1="22.0187" x2="180.204" y2="30.2171" gradientUnits="userSpaceOnUse">
<stop stop-color="#5CB8FF"/>
<stop offset="1" stop-color="#2F2569"/>
</linearGradient>
<linearGradient id="paint9_linear_1648_953" x1="184" y1="21.7468" x2="118.557" y2="26.0726" gradientUnits="userSpaceOnUse">
<stop stop-color="#C5C3FF"/>
<stop offset="0.492931" stop-color="#A3A0F8"/>
<stop offset="1" stop-color="#4441C8"/>
</linearGradient>
</defs>
</svg>
