<?xml version="1.0" encoding="UTF-8"?>
<svg version="1.1" xmlns="http://www.w3.org/2000/svg" width="64" height="64">
<path d="M0 0 C5.63770752 3.36117024 9.53238192 8.22026337 11.5625 14.4375 C13.33416304 25.80809146 9.75203925 33.30968869 3.5625 42.4375 C2.67689824 43.7828764 1.79281887 45.12925599 0.91015625 46.4765625 C-0.78581019 49.05202192 -2.50176346 51.6118914 -4.23828125 54.16015625 C-6.43226858 57.32327339 -6.43226858 57.32327339 -8.04296875 60.37109375 C-8.50316406 61.05300781 -8.96335937 61.73492187 -9.4375 62.4375 C-10.4275 62.4375 -11.4175 62.4375 -12.4375 62.4375 C-14.10699849 60.13389842 -15.56080883 57.88066688 -17 55.4375 C-17.88506107 53.97634704 -18.77048896 52.51541623 -19.65625 51.0546875 C-20.11128906 50.29639648 -20.56632812 49.53810547 -21.03515625 48.75683594 C-23.30929594 44.99563694 -25.65799958 41.28167016 -28 37.5625 C-33.14689004 29.37229029 -34.1933726 24.26384386 -33.4375 14.4375 C-31.82329106 8.23349213 -27.73481607 3.89562317 -22.4375 0.4375 C-15.7366677 -2.84545811 -6.84701942 -3.07983692 0 0 Z M-20.4375 15.4375 C-21.96964888 18.50179776 -21.66688548 21.0540642 -21.4375 24.4375 C-20.18294028 27.26025936 -19.15365278 28.90038541 -16.6875 30.75 C-12.79079061 31.9406612 -9.08420939 31.9406612 -5.1875 30.75 C-1.63099855 28.08262391 -0.56827422 25.33657279 0.0625 21 C-0.60125558 16.27074149 -2.09431791 14.78068209 -5.4375 11.4375 C-11.81272241 8.24988879 -15.97463415 10.97463415 -20.4375 15.4375 Z " fill="#435FA0" transform="translate(33.4375,1.5625)"/>
</svg>
