<?xml version="1.0" encoding="UTF-8"?>
<svg version="1.1" xmlns="http://www.w3.org/2000/svg" width="128" height="128">
<path d="M0 0 C14.66593153 10.19568513 25.60840641 23.74932626 29.74780273 41.46484375 C31.86603529 54.29763126 31.44584138 68.79991362 26.125 80.75 C25.76277344 81.62269531 25.40054688 82.49539062 25.02734375 83.39453125 C17.33536706 100.36902897 3.07751411 111.05081733 -13.734375 117.91796875 C-30.02500275 122.93228047 -49.3872321 120.84818754 -64.375 113.25 C-80.79373216 104.34772371 -91.48385123 89.95575147 -96.98828125 72.1484375 C-100.09059644 59.05712927 -99.35177869 43.05030624 -93.875 30.75 C-93.51277344 29.87730469 -93.15054688 29.00460938 -92.77734375 28.10546875 C-85.8549626 12.82929883 -73.23462165 1.78063924 -57.87109375 -4.47265625 C-38.93392049 -11.50790437 -17.48941603 -10.43527048 0 0 Z M-56.046875 20.65234375 C-61.8722303 27.33656553 -64.32330936 35.43990685 -64.13671875 44.1953125 C-62.17530198 63.34108214 -46.74372256 83.2591178 -34.875 97.75 C-30.31898645 96.23486061 -28.28042276 92.49621476 -25.75 88.6875 C-25.27353027 87.98012695 -24.79706055 87.27275391 -24.30615234 86.54394531 C-7.66954756 62.85426866 -7.66954756 62.85426866 -4.3359375 35.22265625 C-6.8044412 25.79878036 -11.61512957 20.10153061 -19.7265625 14.87890625 C-31.21426925 8.84263852 -46.91802902 12.18839403 -56.046875 20.65234375 Z " fill="#435FA0" transform="translate(97.875,8.25)"/>
<path d="M0 0 C4.96910436 3.11528838 7.53954183 7.44989328 9.625 12.8125 C12.70251402 29.03939209 3.59577287 43.16081103 -5.203125 56.2109375 C-7.32798756 59.31307148 -9.49530851 62.38264057 -11.6875 65.4375 C-14.98092787 64.33969071 -15.30715536 63.94409485 -17.10546875 61.18359375 C-17.55156494 60.50143799 -17.99766113 59.81928223 -18.45727539 59.11645508 C-18.92512451 58.3767749 -19.39297363 57.63709473 -19.875 56.875 C-20.3589624 56.11791748 -20.8429248 55.36083496 -21.34155273 54.58081055 C-38.20414549 27.73485018 -38.20414549 27.73485018 -35.15234375 14.03515625 C-33.2440569 7.76805024 -30.8574172 3.98147954 -25.4375 0.125 C-18.3095388 -3.15761371 -7.18299642 -3.16051842 0 0 Z M-19.6875 15.4375 C-22.1790904 19.1748856 -22.14543285 21.01081583 -21.6875 25.4375 C-19.89187595 28.19079021 -18.63495078 29.96377461 -15.6875 31.4375 C-11.81535818 31.86773798 -10.16253629 31.75419086 -6.875 29.5625 C-4.09100801 26.85805063 -3.75285845 26.01483296 -3.3125 22.125 C-3.37435309 18.33011737 -3.37435309 18.33011737 -5.875 15.5625 C-11.17657439 11.55686602 -14.08713681 11.95282957 -19.6875 15.4375 Z " fill="#445FA0" transform="translate(76.6875,29.5625)"/>
</svg>
