<?xml version="1.0" encoding="UTF-8"?>
<svg version="1.1" xmlns="http://www.w3.org/2000/svg" width="128" height="128">
<path d="M0 0 C10.25043521 7.74112867 18.70526266 17.59173526 20.6875 30.6875 C21.96836177 44.82795902 21.06844427 57.71255554 12.4375 69.5625 C4.06048815 79.29647921 -6.30950268 87.6011099 -19.55273438 88.90869141 C-36.29194278 89.71018162 -48.24843021 87.01387295 -61.27734375 76.03125 C-69.90636197 68.02533375 -74.97975631 57.73921602 -75.62890625 46.03125 C-76.18819388 29.34451548 -72.52277041 17.35708981 -61 4.9375 C-44.70456176 -10.48496833 -18.58433045 -12.3339951 0 0 Z M-29.3125 9.6875 C-30.22227771 11.9281935 -30.22227771 11.9281935 -30.3125 14.6875 C-28.50321093 17.32818923 -28.50321093 17.32818923 -25.81640625 19.76953125 C-25.34887436 20.22857346 -24.88134247 20.68761566 -24.39964294 21.16056824 C-22.90492519 22.62173114 -21.39071414 24.06065999 -19.875 25.5 C-18.85736707 26.48753597 -17.84107308 27.47645369 -16.82617188 28.46679688 C-14.33694409 30.88991626 -11.82980051 33.29351908 -9.3125 35.6875 C-10.1669445 35.69963028 -10.1669445 35.69963028 -11.03865051 35.71200562 C-16.95967188 35.7979667 -22.88035519 35.89746639 -28.80102539 36.00488281 C-31.01157968 36.04320017 -33.22219692 36.07804814 -35.43286133 36.109375 C-38.60781371 36.15496552 -41.78233172 36.21297003 -44.95703125 36.2734375 C-45.94774124 36.28498871 -46.93845123 36.29653992 -47.95918274 36.30844116 C-48.87991074 36.32831085 -49.80063873 36.34818054 -50.74926758 36.36865234 C-51.5597908 36.38197601 -52.37031403 36.39529968 -53.20539856 36.4090271 C-55.61350191 36.56973777 -55.61350191 36.56973777 -58.3125 38.6875 C-57.96805119 41.16016765 -57.96805119 41.16016765 -57.3125 43.6875 C-54.9613157 44.86309215 -53.48532086 44.84266463 -50.86279297 44.89282227 C-49.94198944 44.91276749 -49.02118591 44.93271271 -48.07247925 44.95326233 C-47.07660797 44.96997482 -46.08073669 44.98668732 -45.0546875 45.00390625 C-44.03649933 45.02468735 -43.01831116 45.04546844 -41.9692688 45.06687927 C-38.70874945 45.13239466 -35.44814794 45.19126902 -32.1875 45.25 C-29.98046017 45.29318332 -27.77342872 45.33679755 -25.56640625 45.38085938 C-20.14852499 45.48807805 -14.73056154 45.58984074 -9.3125 45.6875 C-10.27458374 46.60245239 -10.27458374 46.60245239 -11.25610352 47.53588867 C-13.62942958 49.80693666 -15.98862294 52.09092074 -18.33959961 54.38500977 C-19.35966288 55.37490421 -20.38504676 56.35934642 -21.41577148 57.33813477 C-22.89700414 58.74655502 -24.35796319 60.17350885 -25.81640625 61.60546875 C-26.70142822 62.45906982 -27.5864502 63.3126709 -28.49829102 64.19213867 C-30.62932561 66.55582855 -30.62932561 66.55582855 -30.09350586 69.50512695 C-29.83577393 70.22531006 -29.57804199 70.94549316 -29.3125 71.6875 C-23.90361445 71.37074634 -21.28831208 68.27607562 -17.6640625 64.640625 C-17.04727631 64.03240906 -16.43049011 63.42419312 -15.79501343 62.79754639 C-14.4974185 61.51141603 -13.20500422 60.22004049 -11.91748047 58.92382812 C-9.94068296 56.94069317 -7.93869187 54.98571681 -5.93359375 53.03125 C-4.67546404 51.77766473 -3.4188979 50.52250785 -2.1640625 49.265625 C-1.56212067 48.68210266 -0.96017883 48.09858032 -0.33999634 47.49737549 C2.77979957 44.34255897 2.77979957 44.34255897 3.93334961 40.18969727 C2.1029477 36.51346972 -0.48806318 33.9411186 -3.39453125 31.07421875 C-4.00511887 30.45980423 -4.61570648 29.84538971 -5.24479675 29.21235657 C-6.53531767 27.9191187 -7.83088378 26.63089841 -9.13110352 25.34741211 C-11.12154838 23.37841443 -13.08972732 21.38895797 -15.05664062 19.39648438 C-16.3138233 18.14194429 -17.57224589 16.88864525 -18.83203125 15.63671875 C-19.42071487 15.0399382 -20.0093985 14.44315765 -20.61592102 13.82829285 C-24.24377127 10.20088043 -24.24377127 10.20088043 -29.3125 9.6875 Z " fill="#57FCAC" transform="translate(91.3125,23.3125)"/>
</svg>
