<svg width="97" height="94" viewBox="0 0 97 94" fill="none" xmlns="http://www.w3.org/2000/svg">
<path d="M3.65371 91.8917C3.88317 91.0614 4.03614 90.4324 4.24011 89.8538C5.79535 85.1739 7.40159 80.4941 8.85485 75.7891C9.08432 75.0846 8.98233 73.9776 8.5489 73.3737C-10.8279 46.0999 4.34209 8.51039 37.8691 1.16357C63.9768 -4.54783 89.4216 11.3032 95.7446 36.9416C100.895 57.7995 89.8296 80.0664 69.3309 89.3002C53.804 96.2948 38.4555 95.4142 23.5404 87.1113C22.7756 86.6836 21.5773 86.5326 20.7614 86.759C15.6622 88.1932 10.6141 89.8034 5.56589 91.3382C5.00498 91.5143 4.44408 91.6401 3.62821 91.8917H3.65371ZM28.6141 22.2983C28.6141 22.0718 28.5631 21.8705 28.5376 21.6441C26.9569 22.2228 25.0957 22.424 23.8719 23.4305C19.0532 27.3303 17.2685 32.4882 18.3648 38.577C19.4611 44.6155 22.7246 49.5721 26.498 54.277C34.6311 64.3915 44.7275 71.6125 57.3734 75.2356C64.9966 77.4245 75.2205 74.9337 76.8012 64.0392C77.0307 62.4793 76.6992 61.4477 75.1185 60.7684C71.3196 59.133 67.5207 57.4472 63.7728 55.686C62.2431 54.9564 61.1723 55.2835 60.2034 56.617C58.9031 58.4033 57.4754 60.0891 56.1241 61.8503C55.4612 62.7057 54.7728 63.0832 53.651 62.6303C44.9059 59.2336 37.9201 53.7738 33.2543 45.5967C32.6424 44.54 32.7954 43.7349 33.5858 42.8794C34.8606 41.5207 36.0079 40.0615 37.2827 38.728C38.328 37.6461 38.5065 36.5893 37.8691 35.1803C36.4158 32.0605 34.9626 28.9154 33.7643 25.6697C32.8464 23.204 31.6481 21.5183 28.5376 22.2983H28.6141Z" fill="#58FCAD"/>
</svg>
