<svg width="30" height="30" viewBox="0 0 30 30" fill="none" xmlns="http://www.w3.org/2000/svg">
<path fill-rule="evenodd" clip-rule="evenodd" d="M15 0C10.9263 0 10.4154 0.0172674 8.81553 0.0902668C7.21895 0.163087 6.12855 0.41668 5.17444 0.787512C4.18805 1.17079 3.35154 1.68369 2.51759 2.51758C1.68368 3.35153 1.17079 4.18805 0.787511 5.17444C0.41668 6.12855 0.163088 7.21896 0.0902667 8.81553C0.0172673 10.4155 0 10.9263 0 15.0001C0 19.0738 0.0172673 19.5846 0.0902667 21.1846C0.163088 22.7811 0.41668 23.8716 0.787511 24.8256C1.17079 25.812 1.68368 26.6486 2.51759 27.4825C3.35154 28.3163 4.18805 28.8293 5.17444 29.2126C6.12855 29.5834 7.21895 29.8369 8.81553 29.9098C10.4154 29.9827 10.9263 30 15 30C19.0738 30 19.5846 29.9827 21.1845 29.9098C22.7811 29.8369 23.8714 29.5834 24.8256 29.2126C25.8119 28.8293 26.6484 28.3163 27.4825 27.4825C28.3163 26.6486 28.8293 25.812 29.2126 24.8256C29.5834 23.8716 29.837 22.7811 29.9097 21.1846C29.9827 19.5846 30 19.0738 30 15.0001C30 10.9263 29.9827 10.4155 29.9097 8.81553C29.837 7.21896 29.5834 6.12855 29.2126 5.17444C28.8293 4.18805 28.3163 3.35153 27.4825 2.51758C26.6484 1.68369 25.8119 1.17079 24.8256 0.787512C23.8714 0.41668 22.7811 0.163087 21.1845 0.0902668C19.5846 0.0172674 19.0738 0 15 0ZM10 15.0001C10 17.7615 12.2386 20.0001 15 20.0001C17.7615 20.0001 20.0001 17.7615 20.0001 15.0001C20.0001 12.2386 17.7615 10 15 10C12.2386 10 10 12.2386 10 15.0001ZM7.29731 15.0001C7.29731 10.7459 10.7459 7.29731 15 7.29731C19.2541 7.29731 22.7027 10.7459 22.7027 15.0001C22.7027 19.2541 19.2541 22.7027 15 22.7027C10.7459 22.7027 7.29731 19.2541 7.29731 15.0001ZM23.007 8.79297C24.0012 8.79297 24.8071 7.98712 24.8071 6.99299C24.8071 5.99886 24.0012 5.19296 23.007 5.19296C22.013 5.19296 21.2071 5.99886 21.2071 6.99299C21.2071 7.98712 22.013 8.79297 23.007 8.79297Z" fill="#4460A0"/>
</svg>
